# This file uses centimeters as units for non-parametric coordinates.

mtllib projectile.mtl
g default
v -422.198975 -12.809721 -4.162130
v -422.198975 -10.896601 -7.916843
v -422.198975 -7.916843 -10.896598
v -422.198975 -4.162130 -12.809719
v -422.198975 0.000000 -13.468935
v -422.198975 4.162130 -12.809717
v -422.199005 7.916842 -10.896597
v -422.198975 10.896595 -7.916840
v -422.198975 12.809715 -4.162128
v -422.198975 13.468931 0.000000
v -422.198975 12.809715 4.162128
v -422.198975 10.896594 7.916839
v -422.199005 7.916839 10.896594
v -422.198975 4.162128 12.809714
v -422.198975 0.000000 13.468931
v -422.198975 -4.162127 12.809714
v -422.198975 -7.916837 10.896594
v -422.198975 -10.896592 7.916838
v -422.198975 -12.809712 4.162128
v -422.198975 -13.468928 0.000000
v -377.801025 -12.809721 -4.162130
v -377.801025 -10.896601 -7.916843
v -377.800995 -7.916842 -10.896598
v -377.801025 -4.162130 -12.809719
v -377.801025 0.000000 -13.468935
v -377.801025 4.162130 -12.809717
v -377.801025 7.916842 -10.896597
v -377.801025 10.896595 -7.916840
v -377.801025 12.809715 -4.162128
v -377.801025 13.468931 0.000000
v -377.801025 12.809715 4.162128
v -377.801025 10.896594 7.916839
v -377.801025 7.916839 10.896594
v -377.801025 4.162128 12.809714
v -377.801025 0.000000 13.468931
v -377.801025 -4.162127 12.809714
v -377.800995 -7.916838 10.896594
v -377.801025 -10.896592 7.916838
v -377.801025 -12.809712 4.162128
v -377.801025 -13.468928 0.000000
v -377.801025 0.000000 0.000000
v -426.840912 -11.063408 -3.594719
v -426.840942 -9.411098 -6.837563
v -426.840912 -6.837562 -9.411097
v -426.840942 -3.594718 -11.063407
v -426.840942 0.000000 -11.632753
v -426.840912 3.594707 -11.063407
v -426.840942 6.837547 -9.411095
v -426.840942 9.411094 -6.837559
v -426.840942 11.063404 -3.594718
v -426.840942 11.632751 -0.000000
v -426.840942 11.063391 3.594717
v -426.840942 9.411080 6.837559
v -426.840942 6.837560 9.411091
v -426.840912 3.594718 11.063403
v -426.840942 0.000001 11.632751
v -426.840942 -3.594716 11.063401
v -426.840912 -6.837557 9.411091
v -426.840912 -9.411090 6.837559
v -426.840912 -11.063401 3.594717
v -426.840912 -11.632747 -0.000000
v -429.273346 -8.369176 -2.719307
v -429.273346 -7.119238 -5.172429
v -429.273254 -0.000000 -0.000001
v -429.273346 -5.172421 -7.119236
v -429.273346 -2.719306 -8.369162
v -429.273346 0.000001 -8.799860
v -429.273346 2.719298 -8.369162
v -429.273346 5.172420 -7.119235
v -429.273346 7.119240 -5.172426
v -429.273346 8.369170 -2.719306
v -429.273346 8.799860 -0.000001
v -429.273346 8.369155 2.719305
v -429.273346 7.119227 5.172425
v -429.273346 5.172445 7.119231
v -429.273346 2.719307 8.369160
v -429.273346 -0.000015 8.799857
v -429.273346 -2.719305 8.369159
v -429.273346 -5.172426 7.119231
v -429.273346 -7.119226 5.172425
v -429.273346 -8.369153 2.719304
v -429.273346 -8.799856 -0.000001
vt 0.518420 0.352195
vt 0.471653 -0.022520
vt 0.470879 -0.002130
vt 0.470757 0.018025
vt 0.471215 0.037995
vt 0.472149 0.057821
vt 0.473458 0.077540
vt 0.475064 0.097182
vt 0.476911 0.116769
vt 0.478961 0.136320
vt 0.481194 0.155846
vt 0.483603 0.175359
vt 0.486196 0.194867
vt 0.488992 0.214376
vt 0.492026 0.233897
vt 0.495349 0.253439
vt 0.499028 0.273014
vt 0.503145 0.292636
vt 0.507777 0.312330
vt 0.512943 0.332140
vt 0.472988 -0.043221
vt 0.247139 -0.032964
vt 0.248058 -0.011800
vt 0.249016 0.009497
vt 0.250091 0.030884
vt 0.251328 0.052322
vt 0.252750 0.073784
vt 0.254366 0.095248
vt 0.256182 0.116701
vt 0.258195 0.138133
vt 0.260403 0.159539
vt 0.262805 0.180916
vt 0.265398 0.202260
vt 0.268178 0.223569
vt 0.271142 0.244838
vt 0.274284 0.266063
vt 0.277593 0.287233
vt 0.281049 0.308337
vt 0.284622 0.329360
vt 0.288260 0.350283
vt 0.291887 0.371092
vt 0.295396 0.391787
vt 0.648787 0.795741
vt 0.626761 0.752098
vt 0.592327 0.717398
vt 0.548855 0.695037
vt 0.500601 0.687203
vt 0.452288 0.694665
vt 0.408646 0.716691
vt 0.373945 0.751125
vt 0.351584 0.794597
vt 0.343751 0.842851
vt 0.351213 0.891164
vt 0.373239 0.934807
vt 0.407673 0.969507
vt 0.451145 0.991868
vt 0.499399 0.999701
vt 0.547712 0.992240
vt 0.591354 0.970214
vt 0.626055 0.935780
vt 0.648416 0.892308
vt 0.656249 0.844054
vt 0.500001 0.156148
vt 0.500000 0.843452
vt 0.496679 -0.017231
vt 0.544053 0.338345
vt 0.495213 0.000978
vt 0.495033 0.019523
vt 0.495617 0.038277
vt 0.496690 0.057181
vt 0.498101 0.076197
vt 0.499764 0.095297
vt 0.501632 0.114453
vt 0.503673 0.133642
vt 0.505872 0.152841
vt 0.508224 0.172030
vt 0.510731 0.191187
vt 0.513404 0.210288
vt 0.516269 0.229309
vt 0.519366 0.248216
vt 0.522767 0.266968
vt 0.526595 0.285504
vt 0.531068 0.303729
vt 0.536598 0.321469
vt 0.572666 0.127623
vt 0.560132 0.325449
vt 0.560295 0.106564
vt 0.542021 0.090359
vt 0.519635 0.080594
vt 0.495327 0.078225
vt 0.471476 0.083483
vt 0.450417 0.095854
vt 0.434212 0.114127
vt 0.424447 0.136513
vt 0.422078 0.160822
vt 0.427336 0.184673
vt 0.439707 0.205731
vt 0.457980 0.221936
vt 0.480366 0.231702
vt 0.504675 0.234071
vt 0.528526 0.228813
vt 0.549584 0.216442
vt 0.565789 0.198169
vt 0.575554 0.175782
vt 0.500402 -0.034785
vt 0.553476 0.312253
vt 0.518253 -0.025988
vt 0.577924 0.151474
vt 0.548429 0.296825
vt 0.544288 0.280120
vt 0.540692 0.262618
vt 0.537453 0.244585
vt 0.534466 0.226187
vt 0.531677 0.207533
vt 0.529054 0.188707
vt 0.526584 0.169769
vt 0.524257 0.150770
vt 0.522076 0.131754
vt 0.520047 0.112768
vt 0.518185 0.093861
vt 0.516516 0.075100
vt 0.515087 0.056566
vt 0.513978 0.038374
vt 0.513333 0.020681
vt 0.513416 0.003724
vt 0.514728 -0.012098
vn 0.000000 -0.951057 -0.309016
vn 0.000000 -0.809017 -0.587786
vn 0.000000 -0.809017 -0.587786
vn 0.000000 -0.951057 -0.309016
vn 0.000000 -0.587785 -0.809017
vn 0.000000 -0.587785 -0.809017
vn 0.000000 -0.309017 -0.951057
vn 0.000000 -0.309017 -0.951057
vn 0.000000 0.000000 -1.000000
vn 0.000000 0.000000 -1.000000
vn 0.000000 0.309017 -0.951056
vn 0.000000 0.309017 -0.951057
vn 0.000000 0.587785 -0.809017
vn 0.000000 0.587785 -0.809017
vn 0.000000 0.809017 -0.587785
vn 0.000000 0.809017 -0.587785
vn 0.000000 0.951057 -0.309017
vn 0.000000 0.951057 -0.309017
vn 0.000000 1.000000 0.000000
vn 0.000000 1.000000 0.000000
vn 0.000000 0.951057 0.309017
vn 0.000000 0.951057 0.309017
vn 0.000000 0.809017 0.587786
vn 0.000000 0.809017 0.587785
vn -0.000000 0.587785 0.809017
vn -0.000000 0.587785 0.809017
vn -0.000000 0.309017 0.951057
vn -0.000000 0.309017 0.951057
vn 0.000000 0.000000 1.000000
vn 0.000000 0.000000 1.000000
vn 0.000000 -0.309017 0.951057
vn 0.000000 -0.309017 0.951057
vn -0.000000 -0.587785 0.809017
vn -0.000000 -0.587785 0.809017
vn -0.000000 -0.809017 0.587785
vn -0.000000 -0.809017 0.587786
vn 0.000000 -0.951057 0.309017
vn 0.000000 -0.951057 0.309017
vn 0.000000 -1.000000 0.000001
vn 0.000000 -1.000000 0.000001
vn -1.000000 0.000010 0.000006
vn -1.000000 0.000015 0.000003
vn -1.000000 0.000002 -0.000000
vn -1.000000 0.000020 0.000008
vn -1.000000 0.000020 0.000010
vn -1.000000 0.000000 0.000010
vn -1.000000 -0.000010 0.000010
vn -1.000000 -0.000010 0.000008
vn -1.000000 -0.000005 0.000006
vn -1.000000 -0.000010 0.000003
vn -1.000000 -0.000010 -0.000000
vn -1.000000 -0.000005 -0.000003
vn -1.000000 0.000000 -0.000006
vn -1.000000 0.000000 -0.000008
vn -1.000000 0.000000 -0.000010
vn -1.000000 0.000010 -0.000010
vn -1.000000 0.000000 -0.000010
vn -1.000000 -0.000010 -0.000008
vn -1.000000 0.000010 -0.000006
vn -1.000000 0.000010 -0.000003
vn -1.000000 0.000005 -0.000000
vn 1.000000 0.000000 0.000000
vn 1.000000 -0.000004 0.000003
vn 1.000000 0.000001 -0.000000
vn 1.000000 -0.000004 0.000002
vn 1.000000 0.000009 -0.000001
vn 1.000000 0.000009 0.000000
vn 1.000000 0.000000 0.000000
vn 1.000000 0.000000 0.000000
vn 1.000000 0.000000 0.000000
vn 1.000000 0.000000 0.000000
vn 1.000000 0.000000 0.000000
vn 1.000000 0.000000 0.000000
vn 1.000000 -0.000004 0.000000
vn 1.000000 -0.000004 0.000000
vn 1.000000 0.000000 0.000000
vn 1.000000 0.000000 0.000000
vn 1.000000 0.000000 0.000001
vn 1.000000 0.000009 -0.000002
vn 1.000000 0.000009 -0.000003
vn 1.000000 0.000000 0.000000
vn 1.000000 0.000000 0.000000
vn -0.367830 -0.752300 -0.546577
vn -0.367831 -0.884381 -0.287351
vn -0.367831 -0.884381 -0.287351
vn -0.367830 -0.752300 -0.546577
vn -0.367830 -0.546579 -0.752298
vn -0.367830 -0.546579 -0.752298
vn -0.367830 -0.287353 -0.884381
vn -0.367830 -0.287352 -0.884381
vn -0.367830 -0.000000 -0.929893
vn -0.367830 -0.000000 -0.929893
vn -0.367831 0.287353 -0.884380
vn -0.367831 0.287353 -0.884380
vn -0.367832 0.546578 -0.752298
vn -0.367832 0.546578 -0.752298
vn -0.367831 0.752298 -0.546578
vn -0.367831 0.752298 -0.546579
vn -0.367829 0.884382 -0.287352
vn -0.367829 0.884381 -0.287352
vn -0.367829 0.929893 0.000001
vn -0.367829 0.929893 0.000001
vn -0.367831 0.884381 0.287353
vn -0.367831 0.884380 0.287353
vn -0.367831 0.752301 0.546575
vn -0.367831 0.752301 0.546575
vn -0.367831 0.546579 0.752298
vn -0.367831 0.546579 0.752298
vn -0.367830 0.287355 0.884380
vn -0.367830 0.287355 0.884380
vn -0.367830 0.000000 0.929893
vn -0.367830 -0.000000 0.929893
vn -0.367830 -0.287356 0.884380
vn -0.367830 -0.287356 0.884380
vn -0.367831 -0.546578 0.752299
vn -0.367831 -0.546577 0.752299
vn -0.367832 -0.752299 0.546577
vn -0.367832 -0.752299 0.546577
vn -0.367831 -0.884380 0.287353
vn -0.367831 -0.884380 0.287353
vn -0.367832 -0.929892 0.000001
vn -0.367832 -0.929892 0.000001
vn -0.758698 -0.527027 -0.382910
vn -0.758697 -0.619561 -0.201305
vn -0.758696 -0.619561 -0.201305
vn -0.758698 -0.527027 -0.382910
vn -0.758699 -0.382904 -0.527030
vn -0.758699 -0.382904 -0.527030
vn -0.758699 -0.201307 -0.619557
vn -0.758699 -0.201307 -0.619557
vn -0.758699 0.000000 -0.651442
vn -0.758699 0.000000 -0.651442
vn -0.758697 0.201306 -0.619560
vn -0.758697 0.201307 -0.619560
vn -0.758697 0.382908 -0.527029
vn -0.758698 0.382908 -0.527029
vn -0.758698 0.527028 -0.382908
vn -0.758698 0.527028 -0.382908
vn -0.758700 0.619556 -0.201307
vn -0.758700 0.619556 -0.201307
vn -0.758699 0.651442 0.000002
vn -0.758699 0.651442 0.000002
vn -0.758698 0.619558 0.201307
vn -0.758698 0.619558 0.201308
vn -0.758700 0.527026 0.382908
vn -0.758700 0.527026 0.382907
vn -0.758699 0.382903 0.527030
vn -0.758699 0.382903 0.527030
vn -0.758697 0.201306 0.619560
vn -0.758697 0.201306 0.619560
vn -0.758699 0.000000 0.651442
vn -0.758699 -0.000000 0.651442
vn -0.758699 -0.201305 0.619558
vn -0.758699 -0.201305 0.619558
vn -0.758698 -0.382907 0.527030
vn -0.758698 -0.382906 0.527030
vn -0.758695 -0.527032 0.382909
vn -0.758695 -0.527032 0.382909
vn -0.758699 -0.619558 0.201308
vn -0.758699 -0.619558 0.201308
vn -0.758699 -0.651442 0.000002
vn -0.758699 -0.651441 0.000002
s 1
g pCylinder4
usemtl initialShadingGroup
f 1/21/1 2/2/2 22/23/3 21/22/4
f 2/2/2 3/3/5 23/24/6 22/23/3
f 3/3/5 4/4/7 24/25/8 23/24/6
f 4/4/7 5/5/9 25/26/10 24/25/8
f 5/5/9 6/6/11 26/27/12 25/26/10
f 6/6/11 7/7/13 27/28/14 26/27/12
f 7/7/13 8/8/15 28/29/16 27/28/14
f 8/8/15 9/9/17 29/30/18 28/29/16
f 9/9/17 10/10/19 30/31/20 29/30/18
f 10/10/19 11/11/21 31/32/22 30/31/20
f 11/11/21 12/12/23 32/33/24 31/32/22
f 12/12/23 13/13/25 33/34/26 32/33/24
f 13/13/25 14/14/27 34/35/28 33/34/26
f 14/14/27 15/15/29 35/36/30 34/35/28
f 15/15/29 16/16/31 36/37/32 35/36/30
f 16/16/31 17/17/33 37/38/34 36/37/32
f 17/17/33 18/18/35 38/39/36 37/38/34
f 18/18/35 19/19/37 39/40/38 38/39/36
f 19/19/37 20/20/39 40/41/40 39/40/38
f 20/20/39 1/1/1 21/42/4 40/41/40
s 2
f 63/85/41 62/108/42 64/63/43
f 65/87/44 63/85/41 64/63/43
f 66/88/45 65/87/44 64/63/43
f 67/89/46 66/88/45 64/63/43
f 68/90/47 67/89/46 64/63/43
f 69/91/48 68/90/47 64/63/43
f 70/92/49 69/91/48 64/63/43
f 71/93/50 70/92/49 64/63/43
f 72/94/51 71/93/50 64/63/43
f 73/95/52 72/94/51 64/63/43
f 74/96/53 73/95/52 64/63/43
f 75/97/54 74/96/53 64/63/43
f 76/98/55 75/97/54 64/63/43
f 77/99/56 76/98/55 64/63/43
f 78/100/57 77/99/56 64/63/43
f 79/101/58 78/100/57 64/63/43
f 80/102/59 79/101/58 64/63/43
f 81/103/60 80/102/59 64/63/43
f 82/104/61 81/103/60 64/63/43
f 62/108/42 82/104/61 64/63/43
s 3
f 21/61/62 22/60/63 41/64/64
f 22/60/63 23/59/65 41/64/64
f 23/59/65 24/58/66 41/64/64
f 24/58/66 25/57/67 41/64/64
f 25/57/67 26/56/68 41/64/64
f 26/56/68 27/55/69 41/64/64
f 27/55/69 28/54/70 41/64/64
f 28/54/70 29/53/71 41/64/64
f 29/53/71 30/52/72 41/64/64
f 30/52/72 31/51/73 41/64/64
f 31/51/73 32/50/74 41/64/64
f 32/50/74 33/49/75 41/64/64
f 33/49/75 34/48/76 41/64/64
f 34/48/76 35/47/77 41/64/64
f 35/47/77 36/46/78 41/64/64
f 36/46/78 37/45/79 41/64/64
f 37/45/79 38/44/80 41/64/64
f 38/44/80 39/43/81 41/64/64
f 39/43/81 40/62/82 41/64/64
f 40/62/82 21/61/62 41/64/64
s 4
f 2/2/83 1/21/84 42/105/85 43/65/86
f 3/3/87 2/2/83 43/65/86 44/67/88
f 4/4/89 3/3/87 44/67/88 45/68/90
f 5/5/91 4/4/89 45/68/90 46/69/92
f 6/6/93 5/5/91 46/69/92 47/70/94
f 7/7/95 6/6/93 47/70/94 48/71/96
f 8/8/97 7/7/95 48/71/96 49/72/98
f 9/9/99 8/8/97 49/72/98 50/73/100
f 10/10/101 9/9/99 50/73/100 51/74/102
f 11/11/103 10/10/101 51/74/102 52/75/104
f 12/12/105 11/11/103 52/75/104 53/76/106
f 13/13/107 12/12/105 53/76/106 54/77/108
f 14/14/109 13/13/107 54/77/108 55/78/110
f 15/15/111 14/14/109 55/78/110 56/79/112
f 16/16/113 15/15/111 56/79/112 57/80/114
f 17/17/115 16/16/113 57/80/114 58/81/116
f 18/18/117 17/17/115 58/81/116 59/82/118
f 19/19/119 18/18/117 59/82/118 60/83/120
f 20/20/121 19/19/119 60/83/120 61/84/122
f 1/1/84 20/20/121 61/84/122 42/66/85
s 5
f 43/65/123 42/105/124 62/107/125 63/126/126
f 44/67/127 43/65/123 63/126/126 65/125/128
f 45/68/129 44/67/127 65/125/128 66/124/130
f 46/69/131 45/68/129 66/124/130 67/123/132
f 47/70/133 46/69/131 67/123/132 68/122/134
f 48/71/135 47/70/133 68/122/134 69/121/136
f 49/72/137 48/71/135 69/121/136 70/120/138
f 50/73/139 49/72/137 70/120/138 71/119/140
f 51/74/141 50/73/139 71/119/140 72/118/142
f 52/75/143 51/74/141 72/118/142 73/117/144
f 53/76/145 52/75/143 73/117/144 74/116/146
f 54/77/147 53/76/145 74/116/146 75/115/148
f 55/78/149 54/77/147 75/115/148 76/114/150
f 56/79/151 55/78/149 76/114/150 77/113/152
f 57/80/153 56/79/151 77/113/152 78/112/154
f 58/81/155 57/80/153 78/112/154 79/111/156
f 59/82/157 58/81/155 79/111/156 80/110/158
f 60/83/159 59/82/157 80/110/158 81/109/160
f 61/84/161 60/83/159 81/109/160 82/106/162
f 42/66/124 61/84/161 82/106/162 62/86/125
